<svg xmlns="http://www.w3.org/2000/svg" width="27.308" height="23.467" viewBox="0 0 27.308 23.467">
  <g id="buy" transform="translate(0 -36.002)">
    <path id="Path_547" data-name="Path 547" d="M26.88,39.7a1.912,1.912,0,0,0-1.494-.713H4.573l-.186-1.332A1.928,1.928,0,0,0,2.485,36H.853a.853.853,0,0,0,0,1.707H2.485a.214.214,0,0,1,.211.184L5,54.4a1.928,1.928,0,0,0,1.9,1.655h.925a2.56,2.56,0,1,0,4.827,0h4.56a2.56,2.56,0,1,0,4.827,0h1.854a.853.853,0,1,0,0-1.707H6.9a.214.214,0,0,1-.211-.184l-.212-1.523H23.284a1.931,1.931,0,0,0,1.878-1.518l2.1-9.813A1.911,1.911,0,0,0,26.88,39.7ZM11.094,56.909a.853.853,0,1,1-.853-.853A.854.854,0,0,1,11.094,56.909Zm9.387,0a.853.853,0,1,1-.853-.853A.854.854,0,0,1,20.48,56.909ZM25.6,40.953l-2.1,9.813a.215.215,0,0,1-.209.169H6.24L4.811,40.7H25.387a.213.213,0,0,1,.209.258Z" fill="#e7c68e"/>
  </g>
</svg>
