<svg xmlns="http://www.w3.org/2000/svg" width="13.787" height="24.107" viewBox="0 0 13.787 24.107">
  <g id="dollar" transform="translate(-109.589 0)" opacity="0.6">
    <g id="Group_424" data-name="Group 424" transform="translate(109.589 0)">
      <path id="Path_209" data-name="Path 209" d="M117.548,10.547V5.191a7.142,7.142,0,0,1,3.15,1.37,1.127,1.127,0,0,0,.624.2,1.308,1.308,0,0,0,1.309-1.293,1.162,1.162,0,0,0-.335-.822,8.03,8.03,0,0,0-4.763-1.917V.93A.928.928,0,0,0,116.6,0a.227.227,0,0,0-.032,0,.943.943,0,0,0-.957.93V2.664c-3.424.243-5.752,2.359-5.752,5.174,0,3.454,2.937,4.413,5.752,5.174V19.1a7.9,7.9,0,0,1-4.033-1.78,1.267,1.267,0,0,0-.761-.274,1.324,1.324,0,0,0-1.233,1.339,1.162,1.162,0,0,0,.335.822,8.962,8.962,0,0,0,5.707,2.3v1.674c0,.011,0,.021,0,.032a.942.942,0,0,0,.988.9.928.928,0,0,0,.928-.928v-1.7c4.154-.274,5.828-2.8,5.828-5.478C123.376,12.4,120.363,11.308,117.548,10.547Zm-1.917-.487c-1.659-.487-2.952-.989-2.952-2.4s1.172-2.435,2.952-2.572Zm1.917,9.07V13.591c1.72.487,3.059,1.141,3.043,2.739C120.591,17.486,119.8,18.856,117.548,19.13Z" transform="translate(-109.589 0)" fill="#e7c68e"/>
    </g>
  </g>
</svg>
