<svg xmlns="http://www.w3.org/2000/svg" width="25.042" height="25.042" viewBox="0 0 25.042 25.042">
  <g id="logout" opacity="0.6">
    <path id="Path_206" data-name="Path 206" d="M184.493,25.042H173.537a2.872,2.872,0,0,1-2.869-2.869v-4.7a.783.783,0,1,1,1.565,0v4.7a1.306,1.306,0,0,0,1.3,1.3h10.956a1.306,1.306,0,0,0,1.3-1.3V2.869a1.306,1.306,0,0,0-1.3-1.3H173.537a1.306,1.306,0,0,0-1.3,1.3v4.7a.783.783,0,1,1-1.565,0v-4.7A2.872,2.872,0,0,1,173.537,0h10.956a2.872,2.872,0,0,1,2.869,2.869v19.3A2.872,2.872,0,0,1,184.493,25.042Zm0,0" transform="translate(-162.321)" fill="#e7c68e"/>
    <path id="Path_207" data-name="Path 207" d="M15.912,241.565H.783a.783.783,0,1,1,0-1.565h15.13a.783.783,0,1,1,0,1.565Zm0,0" transform="translate(0 -228.262)" fill="#e7c68e"/>
    <path id="Path_208" data-name="Path 208" d="M224.786,164.543a.783.783,0,0,1-.553-1.337l3.621-3.621-3.621-3.621a.783.783,0,0,1,1.107-1.107l4.174,4.174a.783.783,0,0,1,0,1.107l-4.174,4.174A.777.777,0,0,1,224.786,164.543Zm0,0" transform="translate(-213.048 -147.066)" fill="#e7c68e"/>
  </g>
</svg>
