<svg id="Speech_Bubble_48_" xmlns="http://www.w3.org/2000/svg" width="31.8" height="28" viewBox="0 0 31.8 28">
  <path id="Path_176" data-name="Path 176" d="M21.459,23.806s-9.673,4.62-16.577-2.65S3.728,5.52,3.728,5.52s9.394-7.1,18.164-3.361,8.443,10.074,8.443,10.074.493,7.051-5.673,10.407L25.31,26.5Z" fill="#e7c68e"/>
  <g id="Group_114" data-name="Group 114" transform="translate(0 0)">
    <path id="Path_168" data-name="Path 168" d="M27.171,58.536h2.253l-1.593-1.593a5.392,5.392,0,0,1-1.54-3.189,12.143,12.143,0,0,0,4.759-5.626,11.02,11.02,0,0,0,.319-7.061,13.824,13.824,0,0,0-5.3-7.4,17.308,17.308,0,0,0-10.225-3.135c-4.849,0-8.936,1.393-11.819,4.029A12.093,12.093,0,0,0,1.011,48.417a12.439,12.439,0,0,0,3.024,4.207c2.887,2.646,6.971,4.044,11.812,4.044a21.492,21.492,0,0,0,5.346-.68,8.349,8.349,0,0,0,5.979,2.547ZM15.847,32.4c7.718,0,12.454,4.6,13.723,9.164,1.2,4.311-.569,8.384-4.732,10.9l-.465.281.014.543a7.35,7.35,0,0,0,.743,3.046,6.612,6.612,0,0,1-2.924-2l-.395-.466-.585.175a19.306,19.306,0,0,1-5.381.762c-9.605,0-13.98-5.816-13.98-11.22a10.265,10.265,0,0,1,3.421-7.64c2.533-2.316,6.185-3.54,10.559-3.54Z" transform="translate(0 -30.536)" fill="#e7c68e"/>
    <line id="Line_14" data-name="Line 14" x1="12.444" transform="translate(9.483 10.889)" fill="none" stroke="#000" stroke-linecap="round" stroke-width="1.5"/>
    <line id="Line_15" data-name="Line 15" x1="12.444" transform="translate(9.483 16.074)" fill="none" stroke="#000" stroke-linecap="round" stroke-width="1.5"/>
  </g>
</svg>
