<svg xmlns="http://www.w3.org/2000/svg" width="27" height="27" viewBox="0 0 27 27">
  <g id="posting" transform="translate(0 0)" opacity="0.6">
    <g id="Group_423" data-name="Group 423" transform="translate(0 0)">
      <path id="Path_205" data-name="Path 205" d="M27,13.5a.791.791,0,0,0-.376-.672L23.88,11.135l2.747-1.71a.791.791,0,0,0,0-1.342L13.92.121a.791.791,0,0,0-.84,0L.371,8.084a.791.791,0,0,0,0,1.342l2.728,1.7L.372,12.829a.791.791,0,0,0,0,1.342L3.1,15.87.372,17.575a.791.791,0,0,0,0,1.341L13.08,26.879a.791.791,0,0,0,.84,0l12.709-7.963a.791.791,0,0,0,0-1.344L23.88,15.881l2.747-1.71A.791.791,0,0,0,27,13.5ZM2.284,8.752,13.5,1.725,24.716,8.752,13.5,15.732Zm22.426,9.5L13.5,25.276,2.282,18.247,4.6,16.8l8.485,5.281a.791.791,0,0,0,.836,0l8.462-5.267ZM13.5,20.478,2.286,13.5,4.6,12.054l8.485,5.281a.791.791,0,0,0,.836,0l8.462-5.267L24.707,13.5Z" transform="translate(0 0)" fill="#e7c68e"/>
    </g>
  </g>
</svg>
