<svg xmlns="http://www.w3.org/2000/svg" width="24.125" height="26.318" viewBox="0 0 24.125 26.318">
  <g id="user" transform="translate(-6.5 -6.5)">
    <g id="Group_421" data-name="Group 421" transform="translate(11.983 6.5)">
      <path id="Path_203" data-name="Path 203" d="M15.579,19.659A6.462,6.462,0,0,1,9,13.079,6.462,6.462,0,0,1,15.579,6.5a6.462,6.462,0,0,1,6.579,6.579A6.462,6.462,0,0,1,15.579,19.659Zm0-10.966a4.386,4.386,0,1,0,4.386,4.386A4.4,4.4,0,0,0,15.579,8.693Z" transform="translate(-9 -6.5)" fill="#e7c68e"/>
    </g>
    <g id="Group_422" data-name="Group 422" transform="translate(6.5 21.852)">
      <path id="Path_204" data-name="Path 204" d="M29.528,24.966a1.036,1.036,0,0,1-1.1-1.1V19.483a3.373,3.373,0,0,0-3.29-3.29H11.983a3.373,3.373,0,0,0-3.29,3.29v4.386a1.036,1.036,0,0,1-1.1,1.1,1.036,1.036,0,0,1-1.1-1.1V19.483A5.43,5.43,0,0,1,11.983,14H25.142a5.43,5.43,0,0,1,5.483,5.483v4.386A1.036,1.036,0,0,1,29.528,24.966Z" transform="translate(-6.5 -14)" fill="#e7c68e"/>
    </g>
  </g>
</svg>
